<svg xmlns="http://www.w3.org/2000/svg" viewBox="0 0 900 660" role="img" aria-labelledby="title desc">
  <title id="title">Náhled grafického stylu</title>
  <desc id="desc">Kompozice barev, typografie a jednoduchých grafických prvků.</desc>
  <rect width="900" height="660" fill="#fbf8f9"/>
  <rect x="54" y="48" width="792" height="564" rx="18" fill="#ffffff" stroke="#e5d7dd"/>
  <rect x="102" y="98" width="250" height="168" rx="14" fill="#171316"/>
  <rect x="132" y="132" width="96" height="16" rx="8" fill="#f7f2f5"/>
  <rect x="132" y="176" width="156" height="42" rx="21" fill="#c56a92"/>
  <rect x="392" y="98" width="168" height="168" rx="84" fill="#f1d7e1"/>
  <rect x="600" y="98" width="198" height="168" rx="14" fill="#f7eef2"/>
  <rect x="632" y="132" width="86" height="86" rx="43" fill="#c56a92"/>
  <rect x="102" y="330" width="696" height="1" fill="#eadce2"/>
  <rect x="102" y="382" width="198" height="132" rx="14" fill="#f1d7e1"/>
  <rect x="350" y="382" width="198" height="132" rx="14" fill="#e5d7dd"/>
  <rect x="600" y="382" width="198" height="132" rx="14" fill="#171316"/>
  <rect x="102" y="558" width="132" height="12" rx="6" fill="#d8c5cd"/>
  <rect x="282" y="558" width="132" height="12" rx="6" fill="#d8c5cd"/>
  <rect x="462" y="558" width="132" height="12" rx="6" fill="#d8c5cd"/>
</svg>
