<svg xmlns="http://www.w3.org/2000/svg" viewBox="0 0 900 660" role="img" aria-labelledby="title desc">
  <title id="title">Náhled editace videa</title>
  <desc id="desc">Tmavý náhled video přehrávače a střihové timeline.</desc>
  <rect width="900" height="660" fill="#171825"/>
  <rect x="60" y="54" width="780" height="552" rx="18" fill="#0f1018" stroke="#313347"/>
  <rect x="96" y="90" width="458" height="286" rx="14" fill="#242638"/>
  <rect x="594" y="90" width="210" height="286" rx="14" fill="#1d1f30"/>
  <polygon points="286,198 286,268 348,233" fill="#a88cff"/>
  <rect x="626" y="126" width="128" height="12" rx="6" fill="#706982"/>
  <rect x="626" y="160" width="92" height="12" rx="6" fill="#706982"/>
  <rect x="626" y="244" width="136" height="42" rx="21" fill="#a88cff"/>
  <rect x="96" y="438" width="708" height="18" rx="9" fill="#313347"/>
  <rect x="96" y="478" width="244" height="34" rx="8" fill="#a88cff"/>
  <rect x="356" y="478" width="190" height="34" rx="8" fill="#51436f"/>
  <rect x="562" y="478" width="242" height="34" rx="8" fill="#2f3148"/>
  <rect x="96" y="532" width="172" height="28" rx="8" fill="#2f3148"/>
  <rect x="282" y="532" width="284" height="28" rx="8" fill="#51436f"/>
  <rect x="580" y="532" width="224" height="28" rx="8" fill="#2f3148"/>
</svg>
