<svg xmlns="http://www.w3.org/2000/svg" viewBox="0 0 900 660" role="img" aria-labelledby="title desc">
  <title id="title">Náhled produktové stránky</title>
  <desc id="desc">Produktová stránka s čistou mřížkou a obrázkem produktu.</desc>
  <rect width="900" height="660" fill="#fbf8f9"/>
  <rect x="54" y="48" width="792" height="564" rx="18" fill="#ffffff" stroke="#e5d7dd"/>
  <rect x="96" y="90" width="88" height="14" rx="7" fill="#171316"/>
  <rect x="624" y="88" width="62" height="14" rx="7" fill="#d8c5cd"/>
  <rect x="708" y="88" width="62" height="14" rx="7" fill="#d8c5cd"/>
  <rect x="96" y="164" width="326" height="380" rx="18" fill="#f1d7e1"/>
  <circle cx="260" cy="328" r="112" fill="#c56a92" opacity=".72"/>
  <rect x="486" y="178" width="256" height="34" rx="17" fill="#171316"/>
  <rect x="486" y="236" width="204" height="18" rx="9" fill="#c56a92"/>
  <rect x="486" y="286" width="292" height="12" rx="6" fill="#d8c5cd"/>
  <rect x="486" y="314" width="238" height="12" rx="6" fill="#e9dce2"/>
  <rect x="486" y="382" width="120" height="42" rx="21" fill="#171316"/>
  <rect x="486" y="488" width="292" height="1" fill="#eadce2"/>
  <rect x="486" y="524" width="86" height="12" rx="6" fill="#d8c5cd"/>
  <rect x="612" y="524" width="86" height="12" rx="6" fill="#d8c5cd"/>
</svg>
