<svg xmlns="http://www.w3.org/2000/svg" viewBox="0 0 900 660" role="img" aria-labelledby="title desc">
  <title id="title">Minimalistický webový náhled</title>
  <desc id="desc">Světlý náhled webové stránky s textem a obrazovou částí.</desc>
  <rect width="900" height="660" fill="#fbf8f9"/>
  <rect x="54" y="48" width="792" height="564" rx="18" fill="#fff" stroke="#e5d7dd"/>
  <rect x="94" y="88" width="82" height="16" rx="8" fill="#171316"/>
  <rect x="656" y="88" width="52" height="12" rx="6" fill="#d8c5cd"/>
  <rect x="724" y="88" width="52" height="12" rx="6" fill="#d8c5cd"/>
  <rect x="108" y="176" width="278" height="34" rx="17" fill="#171316"/>
  <rect x="108" y="228" width="354" height="20" rx="10" fill="#c56a92"/>
  <rect x="108" y="264" width="316" height="14" rx="7" fill="#d8c5cd"/>
  <rect x="108" y="292" width="254" height="14" rx="7" fill="#e9dce2"/>
  <rect x="108" y="370" width="108" height="38" rx="19" fill="#171316"/>
  <rect x="506" y="154" width="238" height="320" rx="120" fill="#f1d7e1"/>
  <rect x="548" y="196" width="208" height="278" rx="104" fill="#c56a92" opacity=".7"/>
  <rect x="108" y="506" width="628" height="1" fill="#eadce2"/>
  <rect x="108" y="546" width="124" height="14" rx="7" fill="#d8c5cd"/>
  <rect x="282" y="546" width="124" height="14" rx="7" fill="#d8c5cd"/>
  <rect x="456" y="546" width="124" height="14" rx="7" fill="#d8c5cd"/>
</svg>
