<svg xmlns="http://www.w3.org/2000/svg" viewBox="0 0 900 660" role="img" aria-labelledby="title desc">
  <title id="title">Náhled grafických posterů</title>
  <desc id="desc">Sada jednoduchých posterů s růžovým a tmavým motivem.</desc>
  <rect width="900" height="660" fill="#0f1018"/>
  <rect x="80" y="60" width="226" height="540" rx="12" fill="#f7f2f5"/>
  <rect x="122" y="112" width="120" height="18" rx="9" fill="#171316"/>
  <rect x="122" y="168" width="142" height="142" rx="71" fill="#c56a92"/>
  <rect x="122" y="420" width="132" height="14" rx="7" fill="#b7aeb8"/>
  <rect x="122" y="454" width="96" height="14" rx="7" fill="#d8c5cd"/>
  <rect x="338" y="60" width="226" height="540" rx="12" fill="#1e2030"/>
  <rect x="380" y="112" width="120" height="18" rx="9" fill="#f7f2f5"/>
  <rect x="380" y="174" width="142" height="210" rx="71" fill="#a88cff"/>
  <rect x="380" y="430" width="132" height="14" rx="7" fill="#706982"/>
  <rect x="380" y="464" width="96" height="14" rx="7" fill="#706982"/>
  <rect x="596" y="60" width="226" height="540" rx="12" fill="#f1d7e1"/>
  <rect x="638" y="112" width="120" height="18" rx="9" fill="#171316"/>
  <rect x="638" y="168" width="142" height="142" rx="10" fill="#171316"/>
  <rect x="638" y="420" width="132" height="14" rx="7" fill="#c56a92"/>
  <rect x="638" y="454" width="96" height="14" rx="7" fill="#c56a92"/>
</svg>
