<svg xmlns="http://www.w3.org/2000/svg" style="display:none">
  <symbol id="logo-html" viewBox="0 0 64 64">
    <path fill="#e44d26" d="M10 6h44l-4 46-18 6-18-6L10 6z"/>
    <path fill="#f16529" d="M32 10h18l-3.4 39.2L32 54V10z"/>
    <path fill="#fff" d="M19.2 18h25.6l-.5 5.4H25.1l.5 5.6h18.2l-1.4 15.2L32 47.6l-10.4-3.4-.8-8.4h5.3l.4 4.4 5.5 1.8 5.5-1.8.6-5.8H20.5L19.2 18z"/>
  </symbol>
  <symbol id="logo-css" viewBox="0 0 64 64">
    <path fill="#1572b6" d="M10 6h44l-4 46-18 6-18-6L10 6z"/>
    <path fill="#33a9dc" d="M32 10h18l-3.4 39.2L32 54V10z"/>
    <path fill="#fff" d="M20 18h24l-.7 5.4H26l.5 5.3h16.2l-1.4 15.1L32 47l-9.4-3.2-.6-7.6h5.3l.3 3.4 4.4 1.5 4.5-1.5.6-5.6H21.8L20 18z"/>
  </symbol>
  <symbol id="logo-js" viewBox="0 0 64 64">
    <rect width="52" height="52" x="6" y="6" fill="#f7df1e" rx="8"/>
    <path fill="#202018" d="M27.6 45.3c1.1 1.8 2.4 3 5 3 2.1 0 3.5-1 3.5-2.5 0-1.8-1.4-2.4-3.8-3.4l-1.3-.5c-3.8-1.6-6.3-3.6-6.3-7.9 0-3.9 3-6.9 7.7-6.9 3.3 0 5.7 1.1 7.4 4.1l-4 2.6c-.9-1.6-1.9-2.2-3.4-2.2-1.6 0-2.6 1-2.6 2.2 0 1.5 1 2.1 3.2 3.1l1.3.5c4.5 1.9 7 3.8 7 8.2 0 4.7-3.7 7.3-8.7 7.3-4.8 0-7.9-2.3-9.5-5.3l4.5-2.3zM17.2 45.8c.8 1.4 1.5 2.5 3.2 2.5 1.7 0 2.7-.7 2.7-3.2V27.4h5.2v17.8c0 5.4-3.1 7.8-7.7 7.8-4.1 0-6.5-2.1-7.7-4.7l4.3-2.5z"/>
  </symbol>
  <symbol id="logo-ts" viewBox="0 0 64 64">
    <rect width="52" height="52" x="6" y="6" fill="#3178c6" rx="8"/>
    <path fill="#fff" d="M18 28.5h21v4.3h-7.8v20h-5.3v-20H18v-4.3zm23.8 18.7c1.4 1.6 3.3 2.5 5.5 2.5 1.9 0 3-.8 3-2.1 0-1.4-1-1.9-3.7-3.1-3.8-1.6-5.7-3.4-5.7-7 0-3.9 3-6.5 7.6-6.5 3 0 5.4.9 7.2 2.7l-2.6 3.5c-1.3-1.2-2.8-1.8-4.5-1.8-1.7 0-2.5.8-2.5 1.8 0 1.2.7 1.7 3.9 3 4 1.7 5.4 3.6 5.4 7.1 0 4.2-3.2 6.8-8.1 6.8-3.7 0-6.5-1.1-8.5-3.4l3-3.5z"/>
  </symbol>
  <symbol id="logo-php" viewBox="0 0 64 64">
    <ellipse cx="32" cy="32" fill="#777bb4" rx="28" ry="17"/>
    <ellipse cx="32" cy="32" fill="none" stroke="#4f5b93" stroke-width="3" rx="27" ry="16"/>
    <path fill="#fff" d="M16 24h8.4c4.9 0 7 2.1 6.3 6.1-.7 4.2-3.5 6.2-8.4 6.2h-3.1l-1.1 5.7h-4.4L16 24zm5 3.5-1 5.4h3.2c1.8 0 2.9-.9 3.2-2.7.3-1.7-.5-2.7-2.4-2.7h-3zm14-3.5h4.3l-.9 4.5h4c4.3 0 5.9 1.9 5.1 5.8L46 42h-4.5l1.5-7.6c.4-1.8-.2-2.5-2-2.5h-3.3L35.8 42h-4.4L35 24z"/>
  </symbol>
  <symbol id="logo-python" viewBox="0 0 64 64">
    <path fill="#3776ab" d="M31.8 7c-11.4 0-10.7 5-10.7 5v5.2h11.2v2.1H16.8S9 18.4 9 30.2s6.8 11.4 6.8 11.4h4.1v-5.8s-.2-6.8 6.7-6.8h11s6.2.1 6.2-6V13S44.7 7 31.8 7zm-6.1 3.6a3.2 3.2 0 1 1 0 6.4 3.2 3.2 0 0 1 0-6.4z"/>
    <path fill="#ffd43b" d="M32.2 57c11.4 0 10.7-5 10.7-5v-5.2H31.7v-2.1h15.5S55 45.6 55 33.8s-6.8-11.4-6.8-11.4h-4.1v5.8s.2 6.8-6.7 6.8h-11s-6.2-.1-6.2 6V51s-.9 6 12 6zm6.1-3.6a3.2 3.2 0 1 1 0-6.4 3.2 3.2 0 0 1 0 6.4z"/>
  </symbol>
  <symbol id="logo-sql" viewBox="0 0 64 64">
    <path fill="#0f766e" d="M11 18c0-6.1 9.4-11 21-11s21 4.9 21 11v28c0 6.1-9.4 11-21 11s-21-4.9-21-11V18z"/>
    <ellipse cx="32" cy="18" fill="#2dd4bf" rx="21" ry="11"/>
    <path fill="#ecfeff" d="M19 32c2.9 3 7.7 4.4 13 4.4s10.1-1.4 13-4.4v5.6c-3.5 2.7-8.1 4-13 4s-9.5-1.3-13-4V32zm0 11c2.9 3 7.7 4.4 13 4.4s10.1-1.4 13-4.4v4.4c-3.5 2.7-8.1 4-13 4s-9.5-1.3-13-4V43z"/>
  </symbol>
  <symbol id="logo-java" viewBox="0 0 64 64">
    <path fill="#f89820" d="M34 6c7 7-7 11 0 17 3 2.6 8 5.8 1 12 2.5-5.5-4.5-7-7.3-11.2C23.2 17 38 14 34 6z"/>
    <path fill="#5382a1" d="M22 43c-6.4 1.9-1.2 5.4 10.2 5.4 9.9 0 15.5-2.4 13.8-5.7 4.4 2.5 1.6 8.4-14.2 8.4-14.5 0-21.6-4.8-9.8-8.1z"/>
    <path fill="#5382a1" d="M25 36c-4.3 1.3-2.8 3.9 7.5 3.9 5.8 0 10.2-.9 13.3-2.3-1.9 2.9-6.8 4.4-14 4.4-11 0-16.6-3-6.8-6z"/>
    <path fill="#5382a1" d="M19 52c8.4 3.6 26 3.4 30.4-.8-2.2 5.6-24 7.2-30.4.8z"/>
  </symbol>
  <symbol id="logo-csharp" viewBox="0 0 64 64">
    <path fill="#68217a" d="M32 5 55 18.4v27.2L32 59 9 45.6V18.4L32 5z"/>
    <path fill="#fff" d="M32.4 20.5c4.7 0 8.2 2.3 10.1 6l-4.4 2.5c-1-2-3-3.3-5.6-3.3-4.1 0-6.9 3.1-6.9 7.2s2.8 7.2 6.9 7.2c2.6 0 4.6-1.3 5.7-3.4l4.4 2.5c-1.9 3.8-5.5 6.1-10.2 6.1-7.1 0-12.2-5.4-12.2-12.4s5.1-12.4 12.2-12.4zM45 27h2.5l.5-3h3l-.5 3H53v3h-3l-.5 4H52v3h-3l-.5 3h-3l.5-3h-2.5l-.5 3h-3l.5-3H38v-3h3l.5-4H39v-3h3l.5-3h3l-.5 3zm-.5 7H47l.5-4H45l-.5 4z"/>
  </symbol>
  <symbol id="logo-figma" viewBox="0 0 64 64">
    <path fill="#f24e1e" d="M23 6h10v17H23a8.5 8.5 0 0 1 0-17z"/>
    <path fill="#ff7262" d="M33 6h8a8.5 8.5 0 0 1 0 17h-8V6z"/>
    <path fill="#a259ff" d="M23 23h10v17H23a8.5 8.5 0 0 1 0-17z"/>
    <path fill="#1abcfe" d="M33 23h8a8.5 8.5 0 1 1-8.5 8.5V23z"/>
    <path fill="#0acf83" d="M23 40h10v8.5A8.5 8.5 0 1 1 23 40z"/>
  </symbol>
  <symbol id="logo-canva" viewBox="0 0 64 64">
    <defs>
      <linearGradient id="canvaGradient" x1="8" x2="56" y1="56" y2="8" gradientUnits="userSpaceOnUse">
        <stop stop-color="#00c4cc"/>
        <stop offset=".45" stop-color="#7d2ae8"/>
        <stop offset="1" stop-color="#ff5e9c"/>
      </linearGradient>
    </defs>
    <circle cx="32" cy="32" r="27" fill="url(#canvaGradient)"/>
    <path fill="#fff" d="M40.5 40.1c-2.8 4.1-7.2 6.3-12.2 6.3-7.5 0-12.7-5.5-12.7-13 0-8.9 6.9-15.8 15.8-15.8 4.8 0 8.7 2.3 10.6 5.8l-4.3 2.8c-1.3-2.2-3.5-3.4-6.4-3.4-5.6 0-9.8 4.6-9.8 10.3 0 4.6 2.9 7.8 7.1 7.8 3.1 0 5.7-1.4 7.7-4.2l4.2 3.4z"/>
  </symbol>
  <symbol id="logo-ae" viewBox="0 0 64 64">
    <rect width="52" height="52" x="6" y="6" fill="#1f114d" rx="8"/>
    <rect width="42" height="42" x="11" y="11" fill="none" stroke="#d8c7ff" stroke-width="3" rx="4"/>
    <path fill="#d8c7ff" d="M22.2 44h-5.1l7.7-24h6.4l7.8 24h-5.4l-1.6-5.1h-8.3L22.2 44zm2.7-9.4h5.9l-2.9-9.7-3 9.7zm17.5-.1c.1-2 1.4-3.2 3.4-3.2 2.1 0 3.3 1.2 3.4 3.2h-6.8zm11.5 3.3c.1-.6.2-1.3.2-2 0-4.8-3.1-8.2-8.2-8.2-5 0-8.4 3.6-8.4 8.5 0 5 3.4 8.4 8.8 8.4 2.9 0 5.1-.8 6.7-2.2l-2.1-3.1c-1.1.9-2.4 1.4-4.2 1.4-2.4 0-3.9-1-4.3-2.8h11.5z"/>
  </symbol>
  <symbol id="logo-ps" viewBox="0 0 64 64">
    <rect width="52" height="52" x="6" y="6" fill="#001e36" rx="8"/>
    <rect width="42" height="42" x="11" y="11" fill="none" stroke="#31a8ff" stroke-width="3" rx="4"/>
    <path fill="#31a8ff" d="M19 20h9.6c5 0 8.1 3.1 8.1 7.7s-3.2 7.8-8.3 7.8h-4.2V44H19V20zm5.2 4.6v6.3h3.7c2.2 0 3.5-1.2 3.5-3.2s-1.3-3.1-3.5-3.1h-3.7zm16 14.1c1.6 1.3 3.4 1.9 5.4 1.9 1.7 0 2.5-.5 2.5-1.4 0-1-1-1.4-3.3-2.1-3.8-1.1-5.7-2.7-5.7-5.5 0-3.4 2.7-5.7 7.2-5.7 2.6 0 4.8.6 6.5 1.8l-1.8 3.8c-1.4-.9-3-1.4-4.6-1.4-1.6 0-2.3.5-2.3 1.3 0 .9.8 1.2 3.4 2 3.9 1.2 5.6 2.8 5.6 5.7 0 3.6-2.8 5.8-7.6 5.8-3 0-5.5-.8-7.4-2.3l2.1-3.9z"/>
  </symbol>
  <symbol id="logo-pr" viewBox="0 0 64 64">
    <rect width="52" height="52" x="6" y="6" fill="#2a0a4a" rx="8"/>
    <rect width="42" height="42" x="11" y="11" fill="none" stroke="#9999ff" stroke-width="3" rx="4"/>
    <path fill="#9999ff" d="M19 20h9.5c5.1 0 8.2 3.1 8.2 7.8 0 4.8-3.2 7.9-8.4 7.9h-4.1V44H19V20zm5.2 4.6V31H28c2.2 0 3.5-1.2 3.5-3.2s-1.3-3.2-3.5-3.2h-3.8zm16.4 1.8h4.6v2.7c1-2 2.6-3 4.7-3 .5 0 1 .1 1.5.2v4.7c-.6-.2-1.2-.3-1.9-.3-2.6 0-4 1.6-4 4.8V44h-4.9V26.4z"/>
  </symbol>
  <symbol id="logo-ai" viewBox="0 0 64 64">
    <rect width="52" height="52" x="6" y="6" fill="#330000" rx="8"/>
    <rect width="42" height="42" x="11" y="11" fill="none" stroke="#ff9a00" stroke-width="3" rx="4"/>
    <path fill="#ff9a00" d="M23 44h-5.4l8.1-24h6.8l8.2 24h-5.7l-1.6-5.1h-8.8L23 44zm2.8-9.5h6.3L29 24.7l-3.2 9.8zM43 20.7c0-1.6 1.2-2.7 2.9-2.7s2.9 1.1 2.9 2.7-1.2 2.7-2.9 2.7-2.9-1.1-2.9-2.7zM43.4 26.4h5V44h-5V26.4z"/>
  </symbol>
  <symbol id="logo-lr" viewBox="0 0 64 64">
    <rect width="52" height="52" x="6" y="6" fill="#001e36" rx="8"/>
    <rect width="42" height="42" x="11" y="11" fill="none" stroke="#31a8ff" stroke-width="3" rx="4"/>
    <path fill="#31a8ff" d="M20 20h5.2v19.2h10V44H20V20zm18.5 6.4h4.6v2.7c1-2 2.6-3 4.8-3 .5 0 1 .1 1.4.2v4.7c-.6-.2-1.2-.3-1.9-.3-2.6 0-4 1.6-4 4.8V44h-4.9V26.4z"/>
  </symbol>
  <symbol id="logo-id" viewBox="0 0 64 64">
    <rect width="52" height="52" x="6" y="6" fill="#49021f" rx="8"/>
    <rect width="42" height="42" x="11" y="11" fill="none" stroke="#ff3366" stroke-width="3" rx="4"/>
    <path fill="#ff3366" d="M20 20h5.2v24H20V20zm21.7 24-.2-2.1c-1.2 1.7-3 2.6-5.4 2.6-4.6 0-7.6-3.7-7.6-9.1 0-5.3 3-9 7.6-9 2 0 3.7.7 4.8 2.1V19h5v25h-4.2zm-4-4c2.1 0 3.5-1.8 3.5-4.6s-1.4-4.6-3.5-4.6-3.6 1.8-3.6 4.6S35.5 40 37.7 40z"/>
  </symbol>
  <symbol id="logo-xd" viewBox="0 0 64 64">
    <rect width="52" height="52" x="6" y="6" fill="#470137" rx="8"/>
    <rect width="42" height="42" x="11" y="11" fill="none" stroke="#ff61f6" stroke-width="3" rx="4"/>
    <path fill="#ff61f6" d="M18 20h6.2l4.5 8.1 4.6-8.1h6l-7.4 11.8L40 44h-6.3l-5-8.6-5 8.6h-6.1l8-12.2L18 20zm32.1 24-.2-2.1c-1.2 1.7-3 2.6-5.3 2.6-4.6 0-7.6-3.7-7.6-9.1 0-5.3 3-9 7.6-9 2 0 3.7.7 4.8 2.1V19h5v25h-4.3zm-4-4c2.1 0 3.5-1.8 3.5-4.6s-1.4-4.6-3.5-4.6-3.6 1.8-3.6 4.6S44 40 46.1 40z"/>
  </symbol>
</svg>
